<svg class="t" id="Layer_2" xmlns="http://www.w3.org/2000/svg" viewBox="0 0 233.31 124.7"><defs><style>.cls-1{fill:#fafafa;stroke-width:0px;}</style></defs><g id="Layer_1-2"><path class="cls-1" d="m96.78,87.45c-2.41,0-4.34.82-5.8,2.46-1.46,1.64-2.19,3.88-2.19,6.69s.72,5.06,2.18,6.7c1.46,1.64,3.4,2.46,5.84,2.46s4.37-.82,5.81-2.44c1.44-1.62,2.15-3.87,2.14-6.72,0-2.84-.72-5.07-2.17-6.7-1.44-1.64-3.38-2.45-5.8-2.45Z"/><path class="cls-1" d="m58.98,87.45c-2.41,0-4.34.82-5.8,2.46-1.46,1.64-2.19,3.88-2.19,6.69s.72,5.06,2.18,6.7c1.46,1.64,3.4,2.46,5.84,2.46s4.37-.82,5.81-2.44c1.44-1.62,2.15-3.87,2.14-6.72,0-2.84-.72-5.07-2.17-6.7-1.44-1.64-3.38-2.45-5.8-2.45Z"/><path class="cls-1" d="m48.71,55.29v-1.96c-.46.19-1.38.39-2.75.59-1.38.19-3.05.42-5.01.68-1.83.2-3.66.42-5.49.68-1.58.2-3.03.79-4.37,1.77-1.34.99-2.01,2.16-2.01,3.54s.54,2.49,1.62,3.34c1.08.85,2.41,1.41,3.98,1.67,1.64.13,3.04.13,4.22,0s2.52-.55,4.03-1.28c1.64-.78,2.97-1.79,3.98-3.04,1.01-1.25,1.58-2.42,1.72-3.53.06-.85.1-1.67.1-2.46Z"/><path class="cls-1" d="m233.31,48.92c0-3.5-.72-7.2-2.16-11-1.49-3.92-3.82-7.5-6.93-10.66-3.37-3.4-7.54-5.73-12.41-6.9-2.01-.51-4.15-.77-6.39-.77-1.31,0-2.68.09-4.05.26-1.16.15-2.3.37-3.41.68V7.49c0-4.13-3.35-7.49-7.49-7.49h-15.71c-2.34,0-4.43,1.08-5.8,2.76-.07.08-.14.15-.2.23-.07.08-.14.15-.2.23-.07.08-.14.15-.2.23-.07.08-.14.15-.2.23-.07.08-.14.15-.2.23-.07.08-.14.15-.2.23-.07.08-.14.15-.2.23-.07.08-.14.15-.2.23-.07.08-.14.15-.2.23-.07.08-.14.15-.2.23-.07.08-.14.15-.2.23-.07.08-.14.15-.2.23-.07.08-.14.15-.2.23-.07.08-.14.15-.2.23-.07.08-.14.15-.2.23-.07.08-.14.15-.2.23-.07.08-.14.15-.2.23-.07.08-.14.15-.2.23-.07.08-.14.15-.2.23-.07.08-.14.15-.2.23-.07.08-.14.15-.2.23-.07.08-.14.15-.2.23-.07.08-.14.15-.2.23-.07.08-.14.15-.2.23-.07.08-.14.15-.2.23-.07.08-.14.15-.2.23-.07.08-.14.15-.2.23-.07.08-.14.15-.2.23-.39.44-.74.93-1.02,1.46v-3.22c0-4.13-3.35-7.49-7.49-7.49h-15.7c-2.34,0-4.43,1.08-5.8,2.76-.07.08-.14.15-.2.23-.07.08-.14.15-.2.23-.07.08-.14.15-.2.23-.07.08-.14.15-.2.23-.07.08-.14.15-.2.23-.07.08-.14.15-.2.23-.07.08-.14.15-.2.23-.07.08-.14.15-.2.23-.07.08-.14.15-.2.23-.07.08-.14.15-.2.23-.07.08-.14.15-.2.23-.07.08-.14.15-.2.23-.07.08-.14.15-.2.23-.07.08-.14.15-.2.23-.07.08-.14.15-.2.23-.07.08-.14.15-.2.23-.07.08-.14.15-.2.23-.07.08-.14.15-.2.23-.07.08-.14.15-.2.23-.07.08-.14.15-.2.23-.07.08-.14.15-.2.23-.07.08-.14.15-.2.23-.07.08-.14.15-.2.23-.07.08-.14.15-.2.23-.07.08-.14.15-.2.23-.07.08-.14.15-.2.23-.07.08-.14.15-.2.23-.07.08-.14.15-.2.23-1.17,1.32-1.89,3.05-1.89,4.96v6.61h-15.16c-2.34,0-4.43,1.08-5.8,2.76-.07.08-.14.15-.2.23-.07.08-.14.15-.2.23-.07.08-.14.15-.2.23-.07.08-.14.15-.2.23-.07.08-.14.15-.2.23-.07.08-.14.15-.2.23-.07.08-.14.15-.2.23-.07.08-.14.15-.2.23-.07.08-.14.15-.2.23-.07.08-.14.15-.2.23-.07.08-.14.15-.2.23-.07.08-.14.15-.2.23-.07.08-.14.15-.2.23-.07.08-.14.15-.2.23-.07.08-.14.15-.2.23-.07.08-.14.15-.2.23-.07.08-.14.15-.2.23-.07.08-.14.15-.2.23-.07.08-.14.15-.2.23-.07.08-.14.15-.2.23-.07.08-.14.15-.2.23-.07.08-.14.15-.2.23-.07.08-.14.15-.2.23-.07.08-.14.15-.2.23-.07.08-.14.15-.2.23-.07.08-.14.15-.2.23-.07.08-.14.15-.2.23-.07.08-.14.15-.2.23-.22.25-.43.51-.62.79v-2.55c0-4.13-3.35-7.49-7.49-7.49h-15.71c-2.34,0-4.43,1.08-5.8,2.76-.07.08-.14.15-.2.23-.07.08-.14.15-.2.23-.07.08-.14.15-.2.23-.07.08-.14.15-.2.23-.07.08-.14.15-.2.23-.07.08-.14.15-.2.23-.07.08-.14.15-.2.23-.07.08-.14.15-.2.23-.07.08-.14.15-.2.23-.07.08-.14.15-.2.23-.07.08-.14.15-.2.23-.07.08-.14.15-.2.23-.07.08-.14.15-.2.23-.07.08-.14.15-.2.23-.07.08-.14.15-.2.23-.07.08-.14.15-.2.23-.07.08-.14.15-.2.23-.07.08-.14.15-.2.23-.07.08-.14.15-.2.23-.07.08-.14.15-.2.23-.07.08-.14.15-.2.23-.04.05-.09.09-.13.14-2.15-2.14-4.79-3.99-7.92-5.5-4.73-2.28-10.58-3.44-17.39-3.44s-12.76,1.16-17.49,3.44c-3.8,1.84-6.91,4.16-9.27,6.93-.07.08-.14.15-.2.23-.07.08-.14.15-.2.23-.07.08-.14.15-.2.23-.07.08-.14.15-.2.23-.07.08-.14.15-.2.23-.07.08-.14.15-.2.23-.07.08-.14.15-.2.23-.07.08-.14.15-.2.23-.07.08-.14.15-.2.23-.07.08-.14.15-.2.23-.07.08-.14.15-.2.23-.07.08-.14.15-.2.23-.07.08-.14.15-.2.23-.07.08-.14.15-.2.23-.07.08-.14.15-.2.23-.07.08-.14.15-.2.23-.07.08-.14.15-.2.23-.07.08-.14.15-.2.23-.07.08-.14.15-.2.23-.07.08-.14.15-.2.23-.07.08-.14.15-.2.23-.07.08-.14.15-.2.23-.07.08-.14.15-.2.23-.07.08-.14.15-.2.23-.07.08-.14.15-.2.23-.07.08-.14.15-.2.23-.07.08-.14.15-.2.23-.07.08-.14.15-.2.23-.84.96-1.6,1.97-2.25,3.04-2.46,4-3.71,8.29-3.71,12.76,0,2.4,1.13,4.54,2.89,5.91-2.18,3.23-3.28,7.21-3.28,11.86,0,3.91.97,7.51,2.88,10.72.27.45.55.87.84,1.29-.01.01-.02.02-.03.03-.07.07-.13.16-.2.23-.07.07-.13.16-.2.23-.07.07-.13.16-.2.23-.07.07-.13.16-.2.23-.07.07-.13.16-.2.23-.07.07-.13.16-.2.23-.07.07-.13.16-.2.23-.07.07-.13.16-.2.23-.07.07-.13.16-.2.23-.07.07-.13.16-.2.23-.07.07-.13.16-.2.23-1.35,1.35-2.18,3.22-2.18,5.28v4.65c0,4.13,3.35,7.49,7.49,7.49h1.51v14.65c0,4.13,3.35,7.49,7.49,7.49h5.15c2.34,0,4.43-1.08,5.8-2.76.07-.08.14-.15.2-.23.07-.08.14-.15.2-.23.07-.08.14-.15.2-.23.07-.08.14-.15.2-.23.07-.08.14-.15.2-.23.07-.08.14-.15.2-.23.07-.08.14-.15.2-.23.07-.08.14-.15.2-.23.07-.08.14-.15.2-.23.07-.08.14-.15.2-.23.07-.08.14-.15.2-.23.07-.08.14-.15.2-.23.07-.08.14-.15.2-.23.07-.08.14-.15.2-.23.07-.08.14-.15.2-.23.07-.08.14-.15.2-.23.07-.08.14-.15.2-.23.07-.08.14-.15.2-.23.07-.08.14-.15.2-.23.07-.08.14-.15.2-.23.07-.08.14-.15.2-.23.07-.08.14-.15.2-.23.07-.08.14-.15.2-.23.07-.08.14-.15.2-.23.07-.08.14-.15.2-.23.07-.08.14-.15.2-.23.07-.08.14-.15.2-.23.07-.08.14-.15.2-.23.49-.56.9-1.19,1.22-1.87.15.32.3.63.46.94,1.78,3.36,4.33,6.01,7.55,7.89,3.17,1.85,6.76,2.79,10.66,2.79s7.5-.94,10.67-2.78c2.03-1.18,3.79-2.66,5.26-4.43.07-.08.14-.15.2-.23.07-.08.14-.15.2-.23.07-.08.14-.15.2-.23.07-.08.14-.15.2-.23.07-.08.14-.15.2-.23.07-.08.14-.15.2-.23.07-.08.14-.15.2-.23.07-.08.14-.15.2-.23.07-.08.14-.15.2-.23.07-.08.14-.15.2-.23.07-.08.14-.15.2-.23.07-.08.14-.15.2-.23.07-.08.14-.15.2-.23.07-.08.14-.15.2-.23.07-.08.14-.15.2-.23.07-.08.14-.15.2-.23.06-.07.12-.13.18-.2.07.14.14.29.21.44,1.78,3.36,4.33,6.01,7.55,7.89,3.17,1.85,6.76,2.79,10.66,2.79s7.5-.94,10.67-2.78c1.64-.95,3.1-2.1,4.38-3.44.39-.39.76-.79,1.12-1.22.07-.08.14-.15.2-.23.07-.08.14-.15.2-.23.07-.08.14-.15.2-.23.07-.08.14-.15.2-.23.07-.08.14-.15.2-.23.07-.08.14-.15.2-.23.07-.08.14-.15.2-.23.07-.08.14-.15.2-.23.07-.08.14-.15.2-.23.07-.08.14-.15.2-.23.02-.02.03-.03.05-.05v1.82c0,4.13,3.35,7.49,7.49,7.49h18.63c2.27,0,4.3-1.02,5.67-2.61.07-.08.14-.15.2-.23.07-.08.14-.15.2-.23.01-.02.03-.03.05-.04,1.36,1.89,3.57,3.12,6.08,3.12h5.17c2.2,0,4.17-.96,5.54-2.47.07-.07.14-.16.2-.23.05-.05.1-.11.15-.16l.22.25c1.42,1.66,3.5,2.61,5.68,2.61h6.44c1.51,0,2.96-.46,4.17-1.27,1.19.8,2.62,1.27,4.17,1.27h5.03c2.34,0,4.43-1.08,5.8-2.76.07-.08.14-.15.2-.23.07-.08.14-.15.2-.23.07-.08.14-.15.2-.23.07-.08.14-.15.2-.23.07-.08.14-.15.2-.23.07-.08.14-.15.2-.23.07-.08.14-.15.2-.23.07-.08.14-.15.2-.23.07-.08.14-.15.2-.23.07-.08.14-.15.2-.23.07-.08.14-.15.2-.23.07-.08.14-.15.2-.23.07-.08.14-.15.2-.23.07-.08.14-.15.2-.23.07-.08.14-.15.2-.23.07-.08.14-.15.2-.23.07-.08.14-.15.2-.23.07-.08.14-.15.2-.23.07-.08.14-.15.2-.23.07-.08.14-.15.2-.23.07-.08.14-.15.2-.23.07-.08.14-.15.2-.23.07-.08.14-.15.2-.23.07-.08.14-.15.2-.23.07-.08.14-.15.2-.23.07-.08.14-.15.2-.23.07-.08.14-.15.2-.23.07-.08.14-.15.2-.23.54-.61.98-1.3,1.3-2.06v3.81c0,4.13,3.35,7.49,7.49,7.49h5.15c2.34,0,4.43-1.08,5.8-2.76.07-.08.14-.15.2-.23.07-.08.14-.15.2-.23.07-.08.14-.15.2-.23.07-.08.14-.15.2-.23.07-.08.14-.15.2-.23.07-.08.14-.15.2-.23.07-.08.14-.15.2-.23.07-.08.14-.15.2-.23.07-.08.14-.15.2-.23.07-.08.14-.15.2-.23.07-.08.14-.15.2-.23.07-.08.14-.15.2-.23.07-.08.14-.15.2-.23.07-.08.14-.15.2-.23.07-.08.14-.15.2-.23.07-.08.14-.15.2-.23.07-.08.14-.15.2-.23.07-.08.14-.15.2-.23.07-.08.14-.15.2-.23.07-.08.14-.15.2-.23.07-.08.14-.15.2-.23.07-.08.14-.15.2-.23.07-.08.14-.15.2-.23.07-.08.14-.15.2-.23.07-.08.14-.15.2-.23.07-.08.14-.15.2-.23.07-.08.14-.15.2-.23.07-.08.14-.15.2-.23,1.17-1.32,1.89-3.05,1.89-4.96v-9.27c.58-.4,1.1-.88,1.54-1.43.07-.08.14-.15.2-.23.07-.08.14-.15.2-.23.07-.08.14-.15.2-.23.07-.08.14-.15.2-.23.07-.08.14-.15.2-.23.07-.08.14-.15.2-.23.07-.08.14-.15.2-.23.07-.08.14-.15.2-.23.07-.08.14-.15.2-.23.07-.08.14-.15.2-.23.07-.08.14-.15.2-.23.07-.08.14-.15.2-.23.07-.08.14-.15.2-.23.07-.08.14-.15.2-.23.07-.08.14-.15.2-.23.07-.08.14-.15.2-.23.07-.08.14-.15.2-.23.07-.08.14-.15.2-.23.07-.08.14-.15.2-.23.07-.08.14-.15.2-.23.07-.08.14-.15.2-.23.07-.08.14-.15.2-.23.07-.08.14-.15.2-.23.07-.08.14-.15.2-.23.07-.08.14-.15.2-.23.07-.08.14-.15.2-.23.07-.08.14-.15.2-.23.07-.08.14-.15.2-.23,1.17-1.32,1.89-3.05,1.89-4.96v-4.65c0-.87-.15-1.71-.42-2.49.95-1.26,1.52-2.82,1.52-4.52v-27.29ZM36.71,87.87h-9.15v22.13h-5.15v-22.13h-8.99v-4.65h23.3v4.65Zm-.02-11.02c-3.11.62-6.23.74-9.38.34-2.29-.26-4.45-.98-6.48-2.16-2.03-1.18-3.65-2.78-4.86-4.81-1.21-2.03-1.81-4.32-1.81-6.88,0-3.92,1.06-6.97,3.19-9.13,2.12-2.16,4.92-3.64,8.39-4.42,1.71-.4,3.44-.71,5.2-.94,1.77-.23,3.4-.4,4.91-.53,1.9-.13,3.73-.33,5.5-.59l1.27-.2c2.23-.33,3.79-.74,4.71-1.23.92-.49,1.14-1.46.69-2.9-.27-.85-.82-1.54-1.67-2.06-.85-.53-1.86-.9-3.04-1.13-1.18-.23-2.52-.34-4.03-.34-2.16,0-3.97.27-5.4.84-1.44.55-2.49,1.26-3.14,2.11-.66.85-.99,1.77-.99,2.75h-15.22c0-3.07.87-6.02,2.6-8.83,1.73-2.81,4.47-5.12,8.2-6.92s8.48-2.7,14.24-2.7,10.4.9,14.13,2.7,6.44,4.1,8.15,6.88c1.7,2.78,2.55,5.71,2.55,8.79v14.13c0,.66.25,1.23.73,1.72.49.49,1.07.74,1.72.74h4.32v14.23h-11.19c-2.23,0-3.88-.62-4.96-1.86-1.08-1.24-1.62-2.88-1.62-4.91,0-1.38.2-2.66.59-3.88.4-1.21.85-2.24,1.38-3.1h-1.97c-.65,1.97-1.67,3.93-3.04,5.89-1.38,1.97-3.01,3.57-4.91,4.81-2.75,1.77-5.68,2.96-8.79,3.58Zm33.93,26.96c-1.13,2.11-2.71,3.75-4.73,4.93-2.03,1.18-4.33,1.77-6.91,1.77s-4.87-.59-6.89-1.77c-2.02-1.17-3.59-2.82-4.71-4.93-1.13-2.11-1.69-4.51-1.69-7.2s.56-5.08,1.69-7.19c1.12-2.11,2.7-3.75,4.72-4.93,2.03-1.18,4.33-1.77,6.91-1.77,3.92,0,7.11,1.29,9.59,3.86,2.47,2.6,3.71,5.95,3.71,10.02,0,2.69-.57,5.09-1.69,7.2Zm37.8,0c-1.13,2.11-2.71,3.75-4.73,4.93-2.03,1.18-4.33,1.77-6.91,1.77s-4.87-.59-6.89-1.77c-2.02-1.17-3.59-2.82-4.71-4.93-1.13-2.11-1.69-4.51-1.69-7.2s.56-5.08,1.69-7.19c1.12-2.11,2.7-3.75,4.72-4.93,2.03-1.18,4.33-1.77,6.91-1.77,3.92,0,7.11,1.29,9.59,3.86,2.47,2.6,3.71,5.95,3.71,10.02,0,2.69-.57,5.09-1.69,7.2Zm2.04-27.6v-.29c0-1.31.31-2.85.93-4.62.62-1.77,1.36-3.47,2.21-5.1h-1.97c-.98,3.47-2.68,6.09-5.1,7.85-2.42,1.77-5.06,2.83-7.9,3.19-2.85.36-5.42.24-7.71-.35-3.53-.85-6.49-2.49-8.88-4.9-2.39-2.42-4.14-5.11-5.25-8.05-1.12-2.94-1.67-5.73-1.67-8.35v-27.29h15.71v26.7c0,2.62.81,4.91,2.45,6.88,1.64,1.97,4.09,2.94,7.36,2.94,2.55,0,4.55-.47,5.99-1.42,1.44-.95,2.44-2.14,2.99-3.58.55-1.44.84-3.05.84-4.81v-26.7h15.71v47.91h-15.71Zm30.68,33.79h-18.63v-26.78h5.09v22.13h13.54v4.65Zm-6.05-12.14v-11.74c.31.22.61.45.94.66,1.23.81,2.56,1.48,3.99,2.02-.05.37-.08.74-.08,1.13v7.93h-4.84Zm10.96-24.06c-2.46-1.6-4.24-3.66-5.36-6.18-1.11-2.52-1.66-5.16-1.66-7.9v-17.18h-9.43v-14.24h9.43V7.49h15.7v20.81h15.61v14.24h-15.61v16.98c0,.66.25,1.23.74,1.72.49.49,1.06.73,1.72.73h13.16v14.24h-14.92c-3.8,0-6.92-.8-9.38-2.4Zm24.25,36.2l-9.82-11.44-1.97,2v9.44h-5.17v-26.78h5.17v11.04l10.73-11.04h6.5l-11.52,11.9,12.52,14.88h-6.44Zm19.8,0h-5.03v-26.78h5.03v26.78Zm34.62-22.13h-9.15v22.13h-5.15v-22.13h-8.99v-4.65h23.3v4.65Zm1.09-11.66h-15.71v-26.7c0-2.62-.82-4.91-2.46-6.88-1.64-1.97-4.09-2.94-7.36-2.94-2.55,0-4.55.47-5.99,1.42-1.45.95-2.44,2.14-3,3.58-.55,1.44-.83,3.05-.83,4.81v26.7h-15.71V7.49h15.71v19.63c0,2.55-1.05,6.29-3.14,11.19h1.97c.98-3.47,2.68-6.09,5.1-7.85,2.42-1.77,5.05-2.83,7.9-3.18,2.85-.36,5.42-.25,7.7.34,3.54.85,6.5,2.49,8.89,4.9,2.39,2.42,4.14,5.11,5.25,8.05,1.11,2.94,1.67,5.73,1.67,8.35v27.29Z"/></g></svg>